<?xml version="1.0" encoding="UTF-8"?>
<svg version="1.1" xmlns="http://www.w3.org/2000/svg" width="204" height="192">
<path d="M0 0 C67.32 0 134.64 0 204 0 C204 63.36 204 126.72 204 192 C136.68 192 69.36 192 0 192 C0 128.64 0 65.28 0 0 Z " fill="#030303" transform="translate(0,0)"/>
<path d="M0 0 C67.32 0 134.64 0 204 0 C204 63.36 204 126.72 204 192 C136.68 192 69.36 192 0 192 C0 128.64 0 65.28 0 0 Z M90.5 5.4375 C89.81784424 5.79440918 89.13568848 6.15131836 88.43286133 6.51904297 C86.27599165 7.65761725 84.13615201 8.82305541 82 10 C81.30181152 10.38462402 80.60362305 10.76924805 79.88427734 11.16552734 C76.4618796 13.06170989 73.05420987 14.98227059 69.65625 16.921875 C66.68862239 18.61549035 63.69790331 20.25830193 60.6875 21.875 C53.98715088 25.51233238 47.39941057 29.34418089 40.8203125 33.1953125 C37.77266116 34.97909565 34.70895982 36.72363878 31.6171875 38.4296875 C30.28636171 39.1821208 28.9556272 39.93471556 27.625 40.6875 C27.02526367 41.0069458 26.42552734 41.3263916 25.80761719 41.65551758 C20.94523446 44.45201388 18.34127928 48.01571128 16 53 C15.35591668 55.88649719 15.32313175 58.6347604 15.36889648 61.58398438 C15.36174118 62.40135574 15.35458588 63.21872711 15.34721375 64.06086731 C15.33042649 66.73907888 15.34966961 69.4155927 15.37109375 72.09375 C15.37026413 73.96887347 15.36780123 75.84399686 15.36378479 77.71911621 C15.36093361 81.63962828 15.37556128 85.55956691 15.40307617 89.47998047 C15.43715771 94.4901705 15.43113421 99.4993358 15.4124136 104.50957489 C15.40181466 108.3788091 15.41080766 112.24780735 15.42579842 116.11701965 C15.43095946 117.96368203 15.43052381 119.81036926 15.42425346 121.6570282 C15.41876609 124.24389109 15.43928742 126.8293168 15.46655273 129.41601562 C15.46002686 130.16949783 15.45350098 130.92298004 15.44677734 131.69929504 C15.54387971 137.15282061 16.91991553 141.46166829 20 146 C22.19615316 147.83537702 24.00756147 149.16811339 26.4375 150.5625 C27.047146 150.9332666 27.65679199 151.3040332 28.28491211 151.68603516 C33.47355828 154.80283305 38.7954615 157.69145153 44.16015625 160.4921875 C47 162 47 162 49.68359375 163.6953125 C51.99255684 165.24537474 51.99255684 165.24537474 55 165 C55 165.66 55 166.32 55 167 C55.6290625 167.30292969 56.258125 167.60585937 56.90625 167.91796875 C61.74566188 170.28665679 66.36025192 172.78620931 70.89453125 175.69140625 C75.14872469 178.33547824 79.57603471 180.65558018 84 183 C84.57121582 183.31324219 85.14243164 183.62648437 85.73095703 183.94921875 C87.54144263 184.94094348 89.36293864 185.90946 91.1875 186.875 C92.29480469 187.47054687 93.40210937 188.06609375 94.54296875 188.6796875 C99.62469158 190.62050368 103.42826366 191.00774249 108.45727539 189.03710938 C111.17250978 187.71402191 113.80410048 186.29153261 116.4375 184.8125 C117.32759766 184.32974609 118.21769531 183.84699219 119.13476562 183.34960938 C121.76666455 181.91734882 124.38407361 180.46118639 127 179 C127.79156494 178.56486084 128.58312988 178.12972168 129.39868164 177.68139648 C134.19169843 175.0438313 138.89362349 172.28799148 143.5625 169.4375 C147.91949812 166.79945071 152.25381884 164.28051566 156.8515625 162.08203125 C175.73559424 153.41447655 175.73559424 153.41447655 188 138 C188.11672216 135.31982262 188.17806669 132.66465779 188.19287109 129.98364258 C188.20104858 129.16700134 188.20922607 128.35036011 188.21765137 127.50897217 C188.24247876 124.80416593 188.2590163 122.09941217 188.2734375 119.39453125 C188.28142302 118.00698419 188.28142302 118.00698419 188.28956985 116.59140587 C188.31629236 111.69335128 188.33566847 106.79532207 188.35009766 101.8972168 C188.36342708 97.84946038 188.39126252 93.80220924 188.43212891 89.75463867 C188.48152281 84.86224376 188.50622722 79.97030656 188.51332474 75.07767296 C188.52002546 73.21699719 188.53521676 71.35633117 188.55921555 69.49579811 C188.59097214 66.88443922 188.59088834 64.27483278 188.58349609 61.66333008 C188.59990143 60.90199265 188.61630676 60.14065521 188.63320923 59.35624695 C188.56613907 53.53600241 186.69843818 49.49090762 183 45 C180.02546532 42.69955039 180.02546532 42.69955039 176.625 41.0625 C175.38168173 40.40316958 174.13953348 39.74162909 172.8984375 39.078125 C172.25874023 38.74232422 171.61904297 38.40652344 170.95996094 38.06054688 C167.64852796 36.2687102 164.4584584 34.28087187 161.25 32.3125 C156.33227008 29.3253645 151.37454381 26.60514611 146.1875 24.10546875 C143.36907609 22.68115809 140.75725774 21.00814142 138.1015625 19.3046875 C133.85056425 16.66559193 129.41066756 14.35855796 125 12 C124.37512695 11.66500488 123.75025391 11.33000977 123.10644531 10.98486328 C118.74321109 8.64597421 114.37792335 6.31129366 110 4 C109.35933594 3.59265625 108.71867187 3.1853125 108.05859375 2.765625 C101.61816633 0.37032372 96.23520742 2.30125209 90.5 5.4375 Z " fill="#FDFDFD" transform="translate(0,0)"/>
<path d="M0 0 C2.48634322 1.6660687 4.83580223 3.40613359 7.1640625 5.28515625 C7.74542969 5.75308594 8.32679688 6.22101562 8.92578125 6.703125 C10.3515625 7.97265625 10.3515625 7.97265625 12.1640625 10.28515625 C12.19921875 12.16015625 12.19921875 12.16015625 11.1640625 14.28515625 C8.91939291 15.92164965 6.8250438 17.26283158 4.4140625 18.59765625 C3.79273438 18.96955078 3.17140625 19.34144531 2.53125 19.72460938 C-0.32197763 21.34083642 -2.3176573 22.31270121 -5.62890625 22.13671875 C-8.51674026 21.02247483 -10.48250044 19.27652607 -12.8359375 17.28515625 C-18.60504356 13.35992912 -28.14571848 14.40974368 -34.8359375 15.28515625 C-41.96260837 17.654905 -47.36752949 22.65152275 -50.8359375 29.28515625 C-53.82845576 37.57995202 -53.82845576 46.99036048 -50.8359375 55.28515625 C-47.35387416 61.94490677 -41.96514058 66.86192959 -34.8359375 69.28515625 C-26.66309659 70.66155286 -18.22539724 70.80704062 -11.0234375 66.34765625 C-10.31574219 65.80238281 -9.60804687 65.25710937 -8.87890625 64.6953125 C-6.35633298 62.95410992 -4.91725872 62.36218928 -1.8359375 62.28515625 C0.58514889 63.48555118 2.63708238 64.66042905 4.8515625 66.16015625 C6.00112774 66.90782021 7.15086008 67.65522733 8.30078125 68.40234375 C9.24566406 69.02367188 10.19054687 69.645 11.1640625 70.28515625 C11.8240625 70.61515625 12.4840625 70.94515625 13.1640625 71.28515625 C9.48477263 79.77725458 -0.36294255 85.36116718 -8.5234375 89.03515625 C-20.25322223 93.46149011 -34.68971473 92.81136163 -46.24707031 88.18212891 C-57.31653719 83.15846674 -65.31838747 73.96676426 -70.8359375 63.28515625 C-71.48369141 62.08052734 -71.48369141 62.08052734 -72.14453125 60.8515625 C-76.94096344 50.2131091 -76.65032091 35.94689665 -72.7109375 25.09765625 C-67.63001479 13.96801603 -60.25354448 3.49660186 -48.8359375 -1.71484375 C-47.9696875 -2.15957031 -47.1034375 -2.60429688 -46.2109375 -3.0625 C-31.08548492 -9.98856821 -14.13010844 -8.54423912 0 0 Z " fill="#F9F9F9" transform="translate(127.8359375,53.71484375)"/>
<path d="M0 0 C2.64 0 5.28 0 8 0 C8 2.64 8 5.28 8 8 C10.97 8 13.94 8 17 8 C17 10.64 17 13.28 17 16 C14.03 16 11.06 16 8 16 C8 18.64 8 21.28 8 24 C5.36 24 2.72 24 0 24 C0 21.36 0 18.72 0 16 C-2.64 16 -5.28 16 -8 16 C-8 13.36 -8 10.72 -8 8 C-5.36 8 -2.72 8 0 8 C0 5.36 0 2.72 0 0 Z " fill="#FBFBFB" transform="translate(163,84)"/>
<path d="M0 0 C2.64 0 5.28 0 8 0 C8 2.64 8 5.28 8 8 C10.64 8 13.28 8 16 8 C16 10.64 16 13.28 16 16 C13.36 16 10.72 16 8 16 C8 18.64 8 21.28 8 24 C5.36 24 2.72 24 0 24 C0 21.36 0 18.72 0 16 C-2.97 16 -5.94 16 -9 16 C-9 13.36 -9 10.72 -9 8 C-6.03 8 -3.06 8 0 8 C0 5.36 0 2.72 0 0 Z " fill="#F9F9F9" transform="translate(135,84)"/>
</svg>
